<svg width="50" height="50" viewBox="0 0 50 50" fill="none" xmlns="http://www.w3.org/2000/svg">
<path d="M25.0001 23.9582C23.6187 23.9582 22.294 23.4094 21.3172 22.4327C20.3405 21.4559 19.7917 20.1312 19.7917 18.7498C19.7917 17.3685 20.3405 16.0437 21.3172 15.067C22.294 14.0902 23.6187 13.5415 25.0001 13.5415C26.3814 13.5415 27.7062 14.0902 28.6829 15.067C29.6597 16.0437 30.2084 17.3685 30.2084 18.7498C30.2084 19.4338 30.0737 20.1111 29.812 20.743C29.5502 21.3749 29.1666 21.949 28.6829 22.4327C28.1993 22.9163 27.6251 23.3 26.9932 23.5617C26.3613 23.8235 25.684 23.9582 25.0001 23.9582ZM25.0001 4.1665C21.1323 4.1665 17.423 5.70296 14.6881 8.43786C11.9532 11.1728 10.4167 14.8821 10.4167 18.7498C10.4167 29.6873 25.0001 45.8332 25.0001 45.8332C25.0001 45.8332 39.5834 29.6873 39.5834 18.7498C39.5834 14.8821 38.047 11.1728 35.3121 8.43786C32.5771 5.70296 28.8678 4.1665 25.0001 4.1665Z" fill="#F4B8F2"/>
</svg>
