<svg width="40" height="41" viewBox="0 0 40 41" fill="none" xmlns="http://www.w3.org/2000/svg">
<path d="M16.6667 33.8334H23.3333V32.1667H16.6667V33.8334ZM11.6667 38.8334C10.75 38.8334 9.96501 38.5073 9.31168 37.8551C8.65835 37.2029 8.33224 36.4179 8.33335 35.5001V5.50008C8.33335 4.58341 8.66001 3.79897 9.31335 3.14675C9.96668 2.49453 10.7511 2.16786 11.6667 2.16675H28.3333C29.25 2.16675 30.035 2.49341 30.6883 3.14675C31.3417 3.80008 31.6678 4.58453 31.6667 5.50008V35.5001C31.6667 36.4167 31.34 37.2017 30.6867 37.8551C30.0333 38.5084 29.2489 38.8345 28.3333 38.8334H11.6667ZM11.6667 27.1667H28.3333V10.5001H11.6667V27.1667Z" fill="#F4B8F2"/>
</svg>
