<svg width="40" height="41" viewBox="0 0 40 41" fill="none" xmlns="http://www.w3.org/2000/svg">
<path d="M20 37.1666C17.7222 37.1666 15.5695 36.7294 13.5417 35.8549C11.5139 34.9805 9.74279 33.786 8.22835 32.2716C6.71501 30.7571 5.52057 28.986 4.64501 26.9583C3.76946 24.9305 3.33223 22.7777 3.33335 20.4999C3.33335 18.1944 3.77112 16.0344 4.64668 14.0199C5.52223 12.0055 6.71668 10.2416 8.23001 8.72825C9.74335 7.21492 11.5133 6.02048 13.54 5.14492C15.5667 4.26936 17.72 3.83214 20 3.83325C22.3056 3.83325 24.4656 4.27103 26.48 5.14659C28.4945 6.02214 30.2578 7.21659 31.77 8.72992C33.2845 10.2433 34.4789 12.0071 35.3534 14.0216C36.2278 16.036 36.6656 18.1955 36.6667 20.4999V22.9166C36.6667 24.5555 36.1045 25.9516 34.98 27.1049C33.8556 28.2583 32.4734 28.8344 30.8333 28.8333C29.8333 28.8333 28.9028 28.611 28.0417 28.1666C27.1806 27.7221 26.4722 27.1388 25.9167 26.4166C25.1667 27.1666 24.2845 27.7571 23.27 28.1883C22.2556 28.6194 21.1656 28.8344 20 28.8333C17.6945 28.8333 15.7289 28.021 14.1033 26.3966C12.4778 24.7721 11.6656 22.8066 11.6667 20.4999C11.6667 18.1944 12.4795 16.2288 14.105 14.6033C15.7306 12.9777 17.6956 12.1655 20 12.1666C22.3056 12.1666 24.2711 12.9794 25.8967 14.6049C27.5222 16.2305 28.3345 18.1955 28.3333 20.4999V22.9166C28.3333 23.7221 28.5833 24.3544 29.0833 24.8133C29.5833 25.2721 30.1667 25.501 30.8333 25.4999C31.5 25.4999 32.0833 25.271 32.5833 24.8133C33.0833 24.3555 33.3334 23.7233 33.3334 22.9166V20.4999C33.3334 16.861 32.0206 13.7294 29.395 11.1049C26.7695 8.48048 23.6378 7.1677 20 7.16659C16.3611 7.16659 13.2289 8.47936 10.6033 11.1049C7.97779 13.7305 6.66557 16.8621 6.66668 20.4999C6.66668 24.1388 7.97946 27.271 10.605 29.8966C13.2306 32.5221 16.3622 33.8344 20 33.8333H28.3333V37.1666H20ZM20 25.4999C21.3889 25.4999 22.5695 25.0138 23.5417 24.0416C24.5139 23.0694 25 21.8888 25 20.4999C25 19.111 24.5139 17.9305 23.5417 16.9583C22.5695 15.986 21.3889 15.4999 20 15.4999C18.6111 15.4999 17.4306 15.986 16.4583 16.9583C15.4861 17.9305 15 19.111 15 20.4999C15 21.8888 15.4861 23.0694 16.4583 24.0416C17.4306 25.0138 18.6111 25.4999 20 25.4999Z" fill="#F4B8F2"/>
</svg>
